# xmcd
#
# Track frame offsets: 
#        150
#        19295
#        32254
#        49803
#        69588
#        82027
#        102893
#        126197
#        144737
#        164033
#        175723
#
# Disc length: 2616 seconds
#
# Revision: 0
# Processed by: cddbd v1.5.2PL0 Copyright (c) Steve Scherf et al.
# Submitted via: ExactAudioCopyFreeDBPlugin 1.0
#
DISCID=950a360b
DTITLE=Crunchy Western Boys - The Crunchy Western Boys
DYEAR=1900
DGENRE=Old Time
TTITLE0=Natural Blonde
TTITLE1=Please Come Home
TTITLE2=Cold, Cold, Cold
TTITLE3=Drivin' With the Windows Down
TTITLE4=Anyone But You
TTITLE5=Nobody Loves You
TTITLE6=Summer of '29
TTITLE7=Bathtub Gin
TTITLE8=Truth About Love, Part 2
TTITLE9=Last Ride of Paddy O'Rican
TTITLE10=Gone, Gone, Gone
EXTD=
EXTT0=
EXTT1=
EXTT2=
EXTT3=
EXTT4=
EXTT5=
EXTT6=
EXTT7=
EXTT8=
EXTT9=
EXTT10=
PLAYORDER=
